# AST/ASF file generated using VICON BodyLanguage
# -----------------------------------------------
:version 1.10
:name VICON
:units
  mass 1.0
  length 0.45
  angle deg
:documentation
   .ast/.asf automatically generated from VICON data using
   VICON BodyBuilder and BodyLanguage model FoxedUp or BRILLIANT.MOD
:root
   order TX TY TZ RX RY RZ
   axis XYZ
   position 0 0 0  
   orientation 0 0 0 
:bonedata
  begin
     id 1 
     name lhipjoint
     direction 0.522423 -0.726805 0.445902 
     length 2.25074 
     axis 0 0 0  XYZ
  end
  begin
     id 2 
     name lfemur
     direction 0.34202 -0.939693 0  
     length 6.54609  
     axis 0 0 20  XYZ
    dof rx ry rz
    limits (-160.0 20.0)
           (-70.0 70.0)
           (-60.0 70.0)
  end
  begin
     id 3 
     name ltibia
     direction 0.34202 -0.939693 0   
     length 7.7528   
     axis 0 0 20   XYZ
    dof rx
    limits (-10.0 170.0)
  end
  begin
     id 4 
     name lfoot
     direction 0.143696 -0.394801 0.90746   
     length 1.73269   
     axis -90 7.62852e-016 20   XYZ
    dof rx rz
    limits (-45.0 90.0)
           (-70.0 20.0)
  end
  begin
     id 5 
     name ltoes
     direction 1.53633e-011 -4.21912e-011 1   
     length 0.858383   
     axis -90 7.62852e-016 20   XYZ
    dof rx
    limits (-90.0 20.0)
  end
  begin
     id 6 
     name rhipjoint
     direction -0.515943 -0.73016 0.447961   
     length 2.2404  
     axis 0 0 0  XYZ 
  end
  begin
     id 7 
     name rfemur
     direction -0.34202 -0.939693 0   
     length 6.84377   
     axis 0 0 -20   XYZ
    dof rx ry rz
    limits (-160.0 20.0)
           (-70.0 70.0)
           (-70.0 60.0)
  end
  begin
     id 8 
     name rtibia
     direction -0.34202 -0.939693 0   
     length 7.57596   
     axis 0 0 -20   XYZ
    dof rx
    limits (-10.0 170.0)
 end
 begin
     id 9 
     name rfoot
     direction -0.0999372 -0.274575 0.956358   
     length 1.78783  
     axis -90 -7.62852e-016 -20   XYZ
    dof rx rz
    limits (-45.0 90.0)
           (-20.0 70.0)
  end
  begin
     id 10 
     name rtoes
     direction -1.53535e-011 -4.21895e-011 1   
     length 0.898614   
     axis -90 -7.62852e-016 -20   XYZ
    dof rx
    limits (-90.0 20.0)
  end
  begin
     id 11 
     name lowerback
     direction -0.011775 0.996164 -0.0867116   
     length 1.91499   
     axis 0 0 0   XYZ
    dof rx ry rz
    limits (-20.0 45.0)
           (-30.0 30.0)
           (-30.0 30.0)
  end
  begin
     id 12 
     name upperback
     direction -0.00189771 0.999673 -0.0254833   
     length 1.92213   
     axis 0 0 0   XYZ
    dof rx ry rz
    limits (-20.0 45.0)
           (-30.0 30.0)
           (-30.0 30.0)
  end
  begin
     id 13 
     name thorax
     direction 0.00335995 0.999878 0.0152401   
     length 1.93138   
     axis 0 0 0   XYZ
    dof rx ry rz
    limits (-20.0 45.0)
           (-30.0 30.0)
           (-30.0 30.0)
  end
  begin
     id 14 
     name lowerneck
     direction 0.00233191 0.998509 0.0545404   
     length 1.59408   
     axis 0 0 0   XYZ
    dof rx ry rz
    limits (-20.0 45.0)
           (-30.0 30.0)
           (-30.0 30.0)
  end
  begin
     id 15 
     name upperneck
     direction 0.07881 0.9956 -0.0506934   
     length 1.59344   
     axis 0 0 0   XYZ
    dof rx ry rz
    limits (-20.0 45.0)
           (-30.0 30.0)
           (-30.0 30.0)
  end
  begin
     id 16
     name head
     direction 0.0261681 0.999378 -0.0236299  
     length 1.60935  
     axis 0 0 0   XYZ
    dof rx ry rz
    limits (-20.0 45.0)
           (-30.0 30.0)
           (-30.0 30.0)
  end
  begin
     id 17 
     name lclavicle
     direction 0.96643 0.252035 0.0499195  
     length 3.82153  
     axis 0 0 0   XYZ
    dof ry rz
    limits (-20.0 10.0)
           (0.0 20.0)
  end
  begin
     id 18 
     name lhumerus
     direction 1 -4.48967e-011 -2.01614e-018   
     length 4.87796   
     axis 180 -30 -90   XYZ
    dof rx ry rz
    limits (-60.0 90.0)
           (-90.0 90.0)
           (-90.0 90.0)
  end
  begin
     id 19
     name lradius
     direction 1 -4.48958e-011 3.1409e-027   
     length 3.23169   
     axis 180 -30 -90   XYZ
    dof rx
    limits (-10.0 170.0)
  end
  begin
     id 20
     name lwrist
     direction 1 -4.48924e-011 1.0365e-027   
     length 1.61584   
     axis -2.56395e-016 90 90   XYZ
    dof ry
    limits (-180.0 0.0)
 end
  begin
     id 21 
     name lhand
     direction 1 -4.49055e-011 2.09488e-027   
     length 0.731324   
     axis -1.32723e-015 90 90   XYZ
    dof rx rz
    limits (-90.0 90.0)
           (-45.0 45.0)
  end
  begin
     id 22 
     name lfingers
     direction 1 -4.48935e-011 4.14981e-027   
     length 0.589612   
     axis -2.6545e-015 90 90   XYZ
    dof rx
    limits (0.0 90.0)
  end
  begin
     id 23
     name lthumb
     direction 0.707107 -6.35097e-011 0.707107   
     length 0.846569   
     axis -90 45 5.05613e-014   XYZ
    dof rx rz
    limits (-45.0 45.0)
           (-45.0 45.0)
  end
  begin
     id 24 
     name rclavicle
     direction -0.979337 0.201016 0.0221522   
     length 3.73827  
     axis 0 0 0   XYZ 
    dof ry rz
    limits (-10.0 20.0)
           (-20.0 0.0)
  end
  begin
     id 25 
     name rhumerus
     direction -1 -4.48971e-011 1.65907e-027  
     length 4.9143   
     axis 180 30 90   XYZ
    dof rx ry rz
    limits (-90.0 60.0)
           (-90.0 90.0)
           (-90.0 90.0)
  end
  begin
     id 26 
     name rradius
     direction -1 -4.4894e-011 2.17871e-028   
     length 3.29093   
     axis 180 30 90   XYZ
    dof rx
    limits (-10.0 170.0)
  end
  begin
     id 27 
     name rwrist
     direction -1 -4.48971e-011 1.04038e-027   
     length 1.64546   
     axis -2.56395e-016 -90 -90   XYZ
    dof ry
    limits (-180.0 0.0)
  end
  begin
     id 28
     name rhand
     direction -1 -4.49017e-011 2.08843e-027   
     length 0.54512   
     axis -1.32723e-015 -90 -90   XYZ
    dof rx rz
    limits (-90.0 90.0)
           (-45.0 45.0)
  end
  begin
     id 29
     name rfingers
     direction -1 -4.48918e-011 4.1439e-027   
     length 0.43949   
     axis -2.6545e-015 -90 -90   XYZ
    dof rx
    limits (0.0 90.0)
  end
  begin
     id 30
     name rthumb
     direction -0.707107 -6.35065e-011 0.707107   
     length 0.631022   
     axis -90 -45 -5.05613e-014   XYZ
    dof rx rz
    limits (-45.0 45.0)
           (-45.0 45.0)
  end
:hierarchy
  begin
    root lhipjoint rhipjoint lowerback
    lhipjoint lfemur
    lfemur ltibia
    ltibia lfoot
    lfoot ltoes
    rhipjoint rfemur
    rfemur rtibia
    rtibia rfoot
    rfoot rtoes
    lowerback upperback
    upperback thorax
    thorax lowerneck lclavicle rclavicle
    lowerneck upperneck
    upperneck head
    lclavicle lhumerus
    lhumerus lradius
    lradius lwrist
    lwrist lhand lthumb
    lhand lfingers
    rclavicle rhumerus
    rhumerus rradius
    rradius rwrist
    rwrist rhand rthumb
    rhand rfingers
  end

#!OML:ASF H:\BreakDance\Project 1\Capture day 1\Session 1\Male.ASF
:FULLY-SPECIFIED
:DEGREES
763
root 12.3564 10.9954 5.93307 285.977 -41.2021 -205.314
lowerback 14.9982 -3.68341 -5.20199
upperback 9.46329 -6.25358 -5.00741
thorax 1.63851 -3.42961 -1.52401
lowerneck -13.7877 1.16101 -5.9036
upperneck -27.6775 0.459667 0.0401482
head -6.40566 -0.344354 1.14751
rclavicle 9.54166e-015 -7.03698e-014
rhumerus 33.2834 -4.38939 -94.1177
rradius 43.1711
rwrist -46.0342
rhand -44.3668 -73.6297
rfingers 7.12502
rthumb -17.1743 102.891
lclavicle 9.54166e-015 -7.03698e-014
lhumerus 56.5463 -22.5767 60.033
lradius 37.0737
lwrist 34.1306
lhand -54.8189 101.669
lfingers 7.12502
lthumb -27.207 -73.6106
rfemur -83.5534 6.70088 19.6735
rtibia 91.415
rfoot -25.8147 0.0108453
rtoes -54.0167
lfemur -97.9824 31.0131 -18.6675
ltibia 108.31
lfoot -13.0893 -1.22706
ltoes -49.8765
764
root 12.4136 11.0223 5.89773 286.103 -39.9507 -206.311
lowerback 15.0182 -3.79191 -5.80718
upperback 9.41323 -6.49673 -5.15066
thorax 1.63044 -3.57832 -1.30986
lowerneck -13.7558 1.18706 -5.71239
upperneck -27.9047 0.39662 -0.166128
head -6.48461 -0.398782 1.05207
rclavicle -5.88403e-014 5.96354e-015
rhumerus 33.394 -4.33301 -94.2058
rradius 42.8071
rwrist -45.6185
rhand -44.5166 -74.6574
rfingers 7.12502
rthumb -17.3185 103.906
lclavicle -5.88403e-014 5.96354e-015
lhumerus 56.6015 -22.6403 59.8071
lradius 36.6003
lwrist 34.5196
lhand -55.1775 101.128
lfingers 7.12502
lthumb -27.5499 -73.1235
rfemur -84.9179 7.05001 20.9544
rtibia 90.1268
rfoot -26.2177 -1.44735
rtoes -54.4221
lfemur -95.1554 33.419 -15.8759
ltibia 108.257
lfoot -14.7986 -3.31398
ltoes -47.2676
765
root 12.4758 11.0432 5.86118 286.13 -38.6934 -207.358
lowerback 15.0622 -3.89248 -6.39414
upperback 9.3867 -6.73307 -5.30173
thorax 1.63594 -3.72428 -1.11589
lowerneck -13.8129 1.22782 -5.48853
upperneck -28.0984 0.350441 -0.383542
head -6.53955 -0.450227 0.946717
rclavicle -1.01778e-013 0
rhumerus 33.5581 -4.53945 -94.5935
rradius 42.3007
rwrist -44.8243
rhand -44.6512 -75.9483
rfingers 7.12502
rthumb -17.448 105.185
lclavicle -1.01778e-013 0
lhumerus 56.7497 -22.7663 59.5492
lradius 35.9356
lwrist 34.8464
lhand -55.6055 100.464
lfingers 7.12502
lthumb -27.9592 -72.526
rfemur -86.2229 7.31201 22.3178
rtibia 88.7125
rfoot -26.5347 -2.99444
rtoes -54.6882
lfemur -91.953 35.6646 -12.8638
ltibia 107.951
lfoot -15.2662 -6.49356
ltoes -42.8402
766
root 12.5425 11.0573 5.82362 286.076 -37.4352 -208.483
lowerback 15.1351 -3.97677 -6.96059
upperback 9.36644 -6.9493 -5.43453
thorax 1.63602 -3.86012 -0.915806
lowerneck -13.8643 1.27665 -5.29371
upperneck -28.3107 0.315146 -0.596983
head -6.60267 -0.494651 0.847617
rclavicle 9.70069e-014 -2.78299e-015
rhumerus 33.7352 -5.02856 -95.21
rradius 41.6452
rwrist -43.622
rhand -44.7435 -77.4605
rfingers 7.12502
rthumb -17.5368 106.69
lclavicle 9.70069e-014 -2.78299e-015
lhumerus 56.9577 -23.0148 59.3046
lradius 35.073
lwrist 35.0376
lhand -56.1315 99.7327
lfingers 7.12502
lthumb -28.4619 -71.8776
rfemur -87.4657 7.47572 23.7807
rtibia 87.1782
rfoot -26.763 -4.60233
rtoes -54.7592
lfemur -88.4192 37.6557 -9.64576
ltibia 107.401
lfoot -13.8243 -10.5455
ltoes -34.8885
767
root 12.6116 11.0706 5.77152 285.958 -36.1601 -209.703
lowerback 15.2395 -4.05228 -7.51234
upperback 9.34695 -7.15675 -5.55041
thorax 1.62382 -3.99126 -0.70545
lowerneck -13.9061 1.35525 -5.10028
upperneck -28.5535 0.309286 -0.850657
head -6.67875 -0.52316 0.735218
rclavicle 8.74653e-014 4.81059e-014
rhumerus 33.9092 -5.77359 -96.0045
rradius 40.8493
rwrist -42.0469
rhand -44.7749 -79.1251
rfingers 7.12502
rthumb -17.5671 108.351
lclavicle 8.74653e-014 4.81059e-014
lhumerus 57.2014 -23.3765 59.1209
lradius 34.0092
lwrist 35.0055
lhand -56.7644 98.9511
lfingers 7.12502
lthumb -29.0665 -71.1988
rfemur -88.5552 7.54704 25.3324
rtibia 85.42
rfoot -26.8651 -6.28715
rtoes -54.6025
lfemur -84.5481 39.2586 -6.31479
ltibia 106.501
lfoot -10.4603 -14.1371
ltoes -23.4564
768
root 12.6882 11.0686 5.73778 285.774 -34.8507 -210.971
lowerback 15.3396 -4.07717 -8.10712
upperback 9.28396 -7.30119 -5.62119
thorax 1.57947 -4.09111 -0.430879
lowerneck -13.7949 1.42943 -4.9377
upperneck -28.8358 0.283356 -1.15467
head -6.79125 -0.550322 0.61151
rclavicle -2.54444e-014 3.18055e-014
rhumerus 33.9895 -6.79574 -96.7913
rradius 39.9571
rwrist -40.2243
rhand -44.7443 -80.7997
rfingers 7.12502
rthumb -17.5376 110.029
lclavicle -2.54444e-014 3.18055e-014
lhumerus 57.4815 -23.9625 59.0027
lradius 32.7345
lwrist 34.8025
lhand -57.514 98.1043
lfingers 7.12502
lthumb -29.7822 -70.4778
rfemur -89.7181 7.52466 26.9062
rtibia 83.6316
rfoot -26.8576 -8.16913
rtoes -54.283
lfemur -80.6853 40.5768 -2.9891
ltibia 105.521
lfoot -6.74563 -16.3051
ltoes -14.0421
769
root 12.7689 11.0577 5.70895 285.536 -33.4919 -212.318
lowerback 15.4626 -4.08248 -8.74684
upperback 9.19919 -7.43178 -5.69
thorax 1.50826 -4.18434 -0.129083
lowerneck -13.713 1.54904 -4.63773
upperneck -29.0362 0.293454 -1.57202
head -6.86999 -0.563846 0.424367
rclavicle 1.68569e-013 8.78628e-014
rhumerus 33.9835 -7.99631 -97.5539
rradius 39.0094
rwrist -38.3086
rhand -44.6653 -82.3741
rfingers 7.12502
rthumb -17.4615 111.61
lclavicle 1.68569e-013 8.78628e-014
lhumerus 57.8462 -24.7474 58.7855
lradius 31.2447
lwrist 34.459
lhand -58.4115 97.0302
lfingers 7.12502
lthumb -30.6383 -69.5604
rfemur -90.8405 7.39888 28.4927
rtibia 81.708
rfoot -26.5924 -10.2848
rtoes -53.7159
lfemur -76.7945 41.5234 0.217192
ltibia 104.337
lfoot -4.42556 -16.9759
ltoes -11.6672
770
root 12.8522 11.0385 5.68634 285.257 -32.0653 -213.802
lowerback 15.6231 -4.08578 -9.39363
upperback 9.09122 -7.56961 -5.75756
thorax 1.39674 -4.27881 0.183394
lowerneck -13.6193 1.69538 -4.25598
upperneck -29.1355 0.323728 -2.09164
head -6.91394 -0.56311 0.186825
rclavicle 3.33958e-014 2.8625e-014
rhumerus 33.8514 -9.30009 -98.1184
rradius 38.031
rwrist -36.477
rhand -44.5574 -83.7642
rfingers 7.12502
rthumb -17.3578 113.009
lclavicle 3.33958e-014 2.8625e-014
lhumerus 58.3946 -25.8074 58.1654
lradius 29.6233
lwrist 34.2632
lhand -59.4574 95.4391
lfingers 7.12502
lthumb -31.6352 -68.1607
rfemur -91.9112 7.11808 30.0599
rtibia 79.6754
rfoot -25.9158 -12.5714
rtoes -52.7579
lfemur -72.9715 42.0504 3.18188
ltibia 102.958
lfoot -4.01979 -16.6317
ltoes -15.3474
771
root 12.9377 11.0115 5.66905 284.932 -30.5691 -215.419
lowerback 15.8356 -4.10087 -10.0604
upperback 8.9615 -7.74015 -5.84148
thorax 1.24035 -4.387 0.49959
lowerneck -13.5463 1.88841 -3.76741
upperneck -29.1237 0.406663 -2.69865
head -6.91344 -0.536626 -0.100626
rclavicle -6.83819e-014 -5.40694e-014
rhumerus 33.5895 -10.59 -98.4243
rradius 37.0229
rwrist -34.8467
rhand -44.4298 -84.9403
rfingers 7.12502
rthumb -17.2349 114.196
lclavicle -6.83819e-014 -5.40694e-014
lhumerus 59.1952 -27.2017 56.7766
lradius 28.0173
lwrist 34.4922
lhand -60.6273 92.9837
lfingers 7.12502
lthumb -32.7488 -65.9308
rfemur -92.9362 6.69255 31.5563
rtibia 77.5381
rfoot -24.7762 -15.0207
rtoes -51.4686
lfemur -69.3021 42.1745 5.81277
ltibia 101.353
lfoot -5.27252 -15.4876
ltoes -21.2891
772
root 13.0248 10.9773 5.6566 284.557 -29.0362 -217.167
lowerback 16.1046 -4.15004 -10.72
upperback 8.82557 -7.97196 -5.94653
thorax 1.05189 -4.52259 0.803148
lowerneck -13.5275 2.15696 -3.17962
upperneck -29.02 0.586304 -3.37914
head -6.86877 -0.465511 -0.431739
rclavicle -1.59028e-013 -1.08536e-013
rhumerus 33.2309 -11.7473 -98.4696
rradius 35.9816
rwrist -33.4758
rhand -44.295 -85.9655
rfingers 7.12502
rthumb -17.1052 115.232
lclavicle -1.59028e-013 -1.08536e-013
lhumerus 60.3384 -28.9574 54.2303
lradius 26.6655
lwrist 35.4314
lhand -61.8972 270.817
lfingers 7.12502
lthumb -33.9561 -62.3895
rfemur -93.9139 6.11404 32.9877
rtibia 75.3269
rfoot -23.1245 -17.5043
rtoes -49.7132
lfemur -65.8484 41.9488 8.07736
ltibia 99.5029
lfoot -7.06129 -13.6618
ltoes -25.547
773
root 13.1116 10.9357 5.65108 284.111 -27.5299 -218.992
lowerback 16.4045 -4.23385 -11.3355
upperback 8.68963 -8.25545 -6.05588
thorax 0.848751 -4.68009 1.08842
lowerneck -13.5375 2.51107 -2.56364
upperneck -28.8543 0.88517 -4.11308
head -6.79265 -0.332782 -0.786946
rclavicle 6.04305e-014 1.10922e-013
rhumerus 32.7961 -12.684 -98.2485
rradius 34.9234
rwrist -32.3655
rhand -44.1727 -86.8826
rfingers 7.12502
rthumb -16.9875 116.16
lclavicle 6.04305e-014 1.10922e-013
lhumerus 61.9324 -31.0584 50.216
lradius 25.8564
lwrist 37.3552
lhand -63.1938 276.6
lfingers 7.12502
lthumb -35.1868 -56.888
rfemur -94.8641 5.45106 34.4007
rtibia 73.0513
rfoot -21.0252 -19.9334
rtoes -47.4114
lfemur -62.6175 41.5166 10.0088
ltibia 97.395
lfoot -8.69013 -11.4257
ltoes -27.2287
774
root 13.1964 10.8874 5.65324 283.56 -26.1106 -220.812
lowerback 16.7188 -4.33438 -11.8977
upperback 8.5522 -8.55977 -6.14522
thorax 0.637946 -4.84395 1.3711
lowerneck -13.5147 2.94429 -1.99675
upperneck -28.682 1.30029 -4.87882
head -6.71233 -0.133185 -1.14505
rclavicle 8.90555e-014 1.03368e-014
rhumerus 32.2934 -13.3608 -97.7816
rradius 33.8778
rwrist -31.447
rhand -44.0543 -87.7636
rfingers 7.12502
rthumb -16.8734 117.051
lclavicle 8.90555e-014 1.03368e-014
lhumerus 64.0776 -33.408 44.5984
lradius 25.8156
lwrist 40.3596
lhand -64.4204 284.918
lfingers 7.12502
lthumb -36.3491 -48.8522
rfemur -95.7826 4.77912 35.8495
rtibia 70.7019
rfoot -18.5924 -22.1874
rtoes -44.2662
lfemur -59.5407 41.0307 11.6789
ltibia 95.0061
lfoot -9.81537 -9.21466
ltoes -26.1561
775
root 13.2767 10.833 5.66448 282.883 -24.8063 -222.58
lowerback 17.043 -4.42861 -12.3989
upperback 8.40589 -8.8491 -6.19372
thorax 0.412075 -4.99524 1.66554
lowerneck -13.4151 3.4464 -1.50585
upperneck -28.5041 1.81117 -5.72767
head -6.63266 0.131335 -1.51821
rclavicle -2.8625e-014 1.07344e-014
rhumerus 31.7165 -13.8224 -97.1034
rradius 32.8757
rwrist -30.6346
rhand -43.9209 -88.7127
rfingers 7.12502
rthumb -16.7451 118.011
lclavicle -2.8625e-014 1.07344e-014
lhumerus 66.5962 -35.7218 38.1552
lradius 26.3866
lwrist 43.803
lhand -65.3738 296.655
lfingers 7.12502
lthumb -37.2512 -37.3464
rfemur -96.6554 4.14495 37.3403
rtibia 68.2823
rfoot -15.9683 -24.1565
rtoes -40.0598
lfemur -56.5496 40.5929 13.1477
ltibia 92.3228
lfoot -10.3549 -7.15767
ltoes -22.7078
776
root 13.3501 10.7737 5.68628 282.083 -23.6134 -224.293
lowerback 17.3718 -4.5139 -12.8198
upperback 8.24721 -9.11382 -6.19597
thorax 0.166204 -5.12799 1.96649
lowerneck -13.2117 3.98692 -1.10874
upperneck -28.2771 2.37938 -6.68298
head -6.5417 0.448638 -1.91043
rclavicle -3.81667e-014 -3.97569e-016
rhumerus 31.0508 -14.1317 -96.2572
rradius 31.9525
rwrist -29.8577
rhand -43.7776 -89.7551
rfingers 7.12502
rthumb -16.6071 119.065
lclavicle -3.81667e-014 -3.97569e-016
lhumerus 69.0385 -37.7347 32.064
lradius 27.2227
lwrist 46.8504
lhand -65.557 312.356
lfingers 7.12502
lthumb -37.4244 -21.69
rfemur -97.4862 3.55213 38.8354
rtibia 65.8377
rfoot -13.253 -25.8618
rtoes -34.4181
lfemur -53.6039 40.2284 14.4381
ltibia 89.3574
lfoot -10.6022 -5.33045
ltoes -18.6926
